<svg width="201" height="280" viewBox="0 0 201 280" fill="none" xmlns="http://www.w3.org/2000/svg">
<path d="M200.635 99.8015L200.635 99.8007C200.825 98.8682 200.779 97.9086 200.501 96.9941C200.223 96.0795 199.719 95.2325 199.026 94.518L199.019 94.511L199.019 94.5109C198.357 93.7727 197.521 93.1759 196.571 92.7648C195.621 92.3537 194.582 92.1391 193.529 92.1371H43.4511H43.2462L43.206 91.9361L38.647 69.1476L200.635 99.8015ZM200.635 99.8015L189.284 156.478L189.529 156.527M200.635 99.8015L189.529 156.527M189.529 156.527L189.284 156.478C188.36 161.096 185.685 165.279 181.718 168.294C177.751 171.309 172.745 172.964 167.571 172.966H59.6407H59.3353L59.3956 173.265L63.4895 193.598L63.5299 193.798H63.7346H163.756C169.352 193.799 174.795 195.454 179.264 198.513C183.734 201.571 186.987 205.865 188.54 210.746C190.092 215.626 189.862 220.833 187.883 225.585C185.903 230.337 182.28 234.379 177.554 237.101C172.828 239.823 167.256 241.074 161.678 240.664C156.1 240.254 150.822 238.206 146.637 234.831C142.453 231.457 139.59 226.94 138.473 221.962C137.357 216.985 138.045 211.811 140.438 207.219L140.628 206.853H140.216H90.531H90.1186L90.3093 207.219C92.3643 211.159 93.1714 215.54 92.6418 219.873C92.1123 224.205 90.2665 228.32 87.3085 231.754C84.3502 235.189 80.3965 237.807 75.8896 239.312C71.3827 240.817 66.5033 241.149 61.8002 240.269C57.097 239.389 52.7589 237.333 49.2723 234.334C45.7858 231.336 43.2892 227.515 42.0595 223.301C40.8298 219.087 40.9145 214.646 42.3043 210.473C43.6942 206.301 46.3353 202.56 49.9345 199.674L50.0529 199.579L50.0233 199.43L24.5294 71.506L24.4894 71.3048M189.529 156.527L24.4894 71.3048M24.4894 71.3048H24.2843M24.4894 71.3048H24.2843M24.2843 71.3048H7.44345C5.52846 71.3048 3.69607 70.612 2.34845 69.3849C1.00161 68.1586 0.25 66.5006 0.25 64.7774C0.25 63.0542 1.00161 61.3962 2.34845 60.1699C3.69607 58.9429 5.52846 58.25 7.44345 58.25H24.284C27.7062 58.2569 31.0152 59.3536 33.638 61.3462C36.2602 63.3384 38.0298 66.0991 38.6469 69.1471L24.2843 71.3048ZM46.1494 105.192H45.8447L45.9042 105.491L56.6972 159.71L56.7373 159.911H56.9424H167.57C169.375 159.916 171.126 159.341 172.516 158.284C173.906 157.226 174.847 155.752 175.166 154.118L184.843 105.491L184.902 105.192H184.598H46.1494ZM76.4761 223.065C77.7334 221.352 78.4062 219.335 78.4062 217.269C78.4062 214.499 77.1973 211.847 75.0543 209.896C72.9122 207.945 70.0114 206.853 66.9911 206.853C64.7383 206.853 62.5345 207.461 60.6581 208.603C58.7815 209.745 57.3152 211.37 56.4482 213.275C55.5811 215.182 55.3537 217.281 55.7962 219.306C56.2386 221.331 57.3298 223.188 58.9278 224.643C60.5255 226.097 62.5583 227.086 64.7683 227.486C66.9782 227.886 69.2691 227.681 71.352 226.895C73.435 226.11 75.2191 224.778 76.4761 223.065ZM173.241 223.065C174.498 221.352 175.171 219.335 175.171 217.269C175.171 214.499 173.962 211.847 171.819 209.896C169.677 207.945 166.776 206.853 163.756 206.853C161.503 206.853 159.299 207.461 157.423 208.603C155.546 209.745 154.08 211.37 153.213 213.275C152.346 215.182 152.119 217.281 152.561 219.306C153.003 221.331 154.095 223.188 155.693 224.643C157.29 226.097 159.323 227.086 161.533 227.486C163.743 227.886 166.034 227.681 168.117 226.895C170.2 226.11 171.984 224.778 173.241 223.065Z" fill="url(#paint0_linear_310_2)" stroke="black" stroke-width="0.5"/>
<path d="M98.5278 63V63.25H98.7778H104.944C105.42 63.25 105.878 63.4468 106.218 63.8007C106.557 64.155 106.75 64.6376 106.75 65.1429V90.8571C106.75 91.3624 106.557 91.8451 106.218 92.1993C105.878 92.5532 105.42 92.75 104.944 92.75H72.0556C71.5801 92.75 71.122 92.5532 70.7825 92.1993L70.6032 92.3713L70.7825 92.1993C70.4426 91.8451 70.25 91.3624 70.25 90.8571V65.1429C70.25 64.6376 70.4426 64.155 70.7825 63.8007C71.122 63.4468 71.5801 63.25 72.0556 63.25H78.2222H78.4722V63V58.7143C78.4722 55.9357 79.5311 53.2729 81.4129 51.3112C83.2944 49.3498 85.8439 48.25 88.5 48.25C89.8154 48.25 91.1182 48.5201 92.334 49.0451C93.5499 49.5701 94.6554 50.34 95.5871 51.3112C96.5188 52.2825 97.2583 53.4361 97.7631 54.7064C98.2679 55.9768 98.5278 57.3387 98.5278 58.7143V63ZM99.0278 69.4286V69.1786H98.7778H94.6667H94.4167V69.4286V71.5714V71.5717C94.4173 72.1785 94.6401 72.7639 95.0422 73.2079C95.4446 73.6522 95.9967 73.9217 96.5865 73.9578C97.1764 73.9939 97.7556 73.7936 98.2059 73.4007C98.6559 73.0081 98.943 72.4532 99.0118 71.8505L99.0122 71.8505L99.013 71.8365L99.0274 71.5858L99.0278 71.5786V71.5714V69.4286ZM82.5833 69.4286V69.1786H82.3333H78.2222H77.9722V69.4286V71.5714V71.5717C77.9729 72.1785 78.1957 72.7639 78.5978 73.2079C79.0002 73.6522 79.5522 73.9217 80.142 73.9578C80.7319 73.9939 81.3112 73.7936 81.7615 73.4007C82.2114 73.0081 82.4986 72.4532 82.5673 71.8505L82.5677 71.8505L82.5685 71.8365L82.5829 71.5858L82.5833 71.5786V71.5714V69.4286ZM88.5074 52.0358L88.5074 52.0357L88.5 52.0357C86.8601 52.0356 85.284 52.6889 84.0939 53.8587C82.9041 55.0283 82.1897 56.6256 82.094 58.3231L82.0939 58.3231L82.0937 58.3303L82.0834 58.7075L82.0833 58.7075V58.7143V63V63.25H82.3333H94.6667H94.9167V63V58.7143C94.9168 57.0139 94.2936 55.376 93.1721 54.136C92.0503 52.8958 90.5141 52.1472 88.8771 52.0469L88.8771 52.0468L88.8692 52.0465L88.5074 52.0358Z" fill="#FFE6BC" stroke="black" stroke-width="0.5"/>
<path d="M153.861 62.6V62.85H154.111H160.778C161.304 62.85 161.806 63.0516 162.176 63.4076C162.545 63.7633 162.75 64.2438 162.75 64.7429V90.4571C162.75 90.9562 162.545 91.4367 162.176 91.7924C161.806 92.1485 161.304 92.35 160.778 92.35H125.222C124.696 92.35 124.194 92.1485 123.824 91.7924C123.455 91.4367 123.25 90.9562 123.25 90.4571V64.7429C123.25 64.2438 123.455 63.7633 123.824 63.4076C124.194 63.0516 124.696 62.85 125.222 62.85H131.889H132.139V62.6V58.3143C132.139 55.542 133.281 52.8813 135.317 50.9181C137.353 48.9546 140.117 47.85 143 47.85C144.428 47.85 145.841 48.1211 147.159 48.6477C148.478 49.1743 149.675 49.946 150.683 50.9181C151.691 51.8902 152.491 53.0438 153.036 54.3128C153.581 55.5817 153.861 56.9414 153.861 58.3143V62.6ZM154.361 69.0286V68.7786H154.111H149.667H149.417V69.0286V71.1714V71.1717C149.417 71.7845 149.661 72.3721 150.094 72.815C150.528 73.2576 151.118 73.5224 151.745 73.5578C152.371 73.5933 152.989 73.397 153.472 73.0068C153.956 72.6165 154.269 72.061 154.344 71.4528L154.345 71.4452L154.345 71.4376L154.361 71.1869L154.361 71.1792V71.1714V69.0286ZM136.583 69.0286V68.7786H136.333H131.889H131.639V69.0286V71.1714V71.1717C131.64 71.7845 131.883 72.3721 132.317 72.815C132.75 73.2576 133.34 73.5224 133.967 73.5578C134.593 73.5933 135.211 73.397 135.694 73.0068C136.178 72.6165 136.491 72.061 136.566 71.4528L136.567 71.4452L136.567 71.4376L136.583 71.1869L136.583 71.1792V71.1714V69.0286ZM143.007 51.6358L143.007 51.6357L143 51.6357C141.239 51.6356 139.542 52.2845 138.258 53.4521C136.974 54.6198 136.199 56.2186 136.095 57.9219L136.095 57.9219L136.095 57.9298L136.083 58.3069L136.083 58.3069V58.3143V62.6V62.85H136.333H149.667H149.917V62.6V58.3143C149.917 56.608 149.241 54.9678 148.029 53.7289C146.818 52.4904 145.164 51.7465 143.405 51.6468L143.405 51.6467L143.398 51.6465L143.007 51.6358Z" fill="#33D8CE" stroke="black" stroke-width="0.5"/>
<path d="M110.01 114.848C111.514 112.45 114.16 111 116.996 111C119.831 111 122.477 112.45 123.981 114.848L127.298 120.111L129.617 118.78C130.339 118.362 131.241 118.422 131.903 118.926C132.564 119.429 132.857 120.282 132.642 121.084L130.631 128.54C130.339 129.632 129.205 130.281 128.105 129.991L120.596 127.994C119.788 127.781 119.195 127.107 119.084 126.288C118.972 125.469 119.376 124.659 120.097 124.249L122.538 122.85L119.316 117.74C118.817 116.946 117.941 116.46 116.996 116.46C116.051 116.46 115.174 116.946 114.676 117.74L113.172 120.128C112.382 121.391 110.715 121.792 109.426 121.024C108.112 120.239 107.691 118.533 108.507 117.236L110.01 114.848ZM131.903 132.49C133.192 131.722 134.859 132.123 135.649 133.386L137.745 136.722C138.553 138.01 138.983 139.486 139 141.004C139.026 145.534 135.331 149.229 130.769 149.229L122.495 149.22V151.95C122.495 152.778 121.996 153.528 121.223 153.844C120.45 154.16 119.565 153.989 118.972 153.4L113.473 147.94C112.665 147.138 112.665 145.842 113.473 145.048L118.972 139.588C119.565 139 120.45 138.829 121.223 139.145C121.996 139.46 122.495 140.211 122.495 141.039V143.769H130.76C132.272 143.769 133.501 142.54 133.492 141.039C133.492 140.535 133.346 140.04 133.08 139.614L130.984 136.278C130.167 134.981 130.58 133.275 131.903 132.49ZM100.576 129.846L98.0933 128.421C97.3715 128.003 96.9677 127.201 97.0794 126.382C97.1911 125.563 97.7839 124.889 98.5916 124.676L106.101 122.679C107.201 122.389 108.335 123.038 108.627 124.13L110.638 131.577C110.852 132.379 110.56 133.224 109.899 133.736C109.237 134.248 108.335 134.299 107.613 133.881L105.336 132.576L100.911 139.605C100.645 140.032 100.499 140.527 100.499 141.03C100.49 142.531 101.719 143.76 103.231 143.76H105.998C107.519 143.76 108.747 144.98 108.747 146.49C108.747 148 107.519 149.22 105.998 149.22H103.231C98.6689 149.22 94.9744 145.534 95.0001 140.996C95.0087 139.477 95.4383 138.001 96.2546 136.713L100.576 129.846Z" fill="#7FB77E"/>
<path d="M132.25 41V41.25H132.5H137.75C140.452 41.25 142.75 44.0106 142.75 47.5V86.5C142.75 89.9894 140.452 92.75 137.75 92.75H106.25C103.548 92.75 101.25 89.9894 101.25 86.5V47.5C101.25 44.0106 103.548 41.25 106.25 41.25H111.5H111.75V41C111.75 33.9031 116.384 28.25 122 28.25C127.616 28.25 132.25 33.9031 132.25 41ZM111.5 47.25H111.25V47.5V54C111.25 55.8731 112.496 57.5 114.125 57.5C115.754 57.5 117 55.8731 117 54V47.5V47.25H116.75H111.5ZM127.25 41.25H127.5V41C127.5 37.3394 125.073 34.25 122 34.25C118.927 34.25 116.5 37.3394 116.5 41V41.25H116.75H127.25ZM127.25 47.25H127V47.5V54C127 55.8731 128.246 57.5 129.875 57.5C131.504 57.5 132.75 55.8731 132.75 54V47.5V47.25H132.5H127.25Z" fill="#C9F769" stroke="black" stroke-width="0.5"/>
<path d="M66.4403 264.247C65.071 264.247 63.8892 263.977 62.8949 263.438C61.9063 262.892 61.1449 262.116 60.6108 261.111C60.0824 260.099 59.8182 258.898 59.8182 257.506C59.8182 256.153 60.0852 254.972 60.6193 253.96C61.1534 252.943 61.9062 252.153 62.8778 251.591C63.8494 251.023 64.9943 250.739 66.3125 250.739C67.2443 250.739 68.0966 250.884 68.8693 251.173C69.642 251.463 70.3097 251.892 70.8722 252.46C71.4347 253.028 71.8722 253.73 72.1847 254.565C72.4972 255.395 72.6534 256.347 72.6534 257.42V258.46H61.2756V256.04H68.7756C68.7699 255.597 68.6648 255.202 68.4602 254.855C68.2557 254.509 67.9744 254.239 67.6165 254.045C67.2642 253.847 66.858 253.747 66.3977 253.747C65.9318 253.747 65.5142 253.852 65.1449 254.062C64.7756 254.267 64.483 254.548 64.267 254.906C64.0511 255.259 63.9375 255.659 63.9261 256.108V258.571C63.9261 259.105 64.0313 259.574 64.2415 259.977C64.4517 260.375 64.75 260.685 65.1364 260.906C65.5227 261.128 65.983 261.239 66.517 261.239C66.8864 261.239 67.2216 261.187 67.5227 261.085C67.8239 260.983 68.0824 260.832 68.2983 260.634C68.5142 260.435 68.6761 260.19 68.7841 259.901L72.6108 260.011C72.4517 260.869 72.1023 261.616 71.5625 262.253C71.0284 262.884 70.3267 263.375 69.4574 263.727C68.5881 264.074 67.5824 264.247 66.4403 264.247ZM83.1598 255.332V258.545H75.0803V255.332H83.1598ZM85.1797 249.972V246.545H99.9325V249.972H94.6399V264H90.4808V249.972H85.1797ZM100.634 264V250.909H104.682V253.295H104.818C105.057 252.432 105.446 251.79 105.986 251.369C106.526 250.943 107.153 250.73 107.869 250.73C108.063 250.73 108.261 250.744 108.466 250.773C108.67 250.795 108.861 250.832 109.037 250.884V254.506C108.838 254.437 108.577 254.384 108.253 254.344C107.935 254.304 107.651 254.284 107.401 254.284C106.906 254.284 106.46 254.395 106.062 254.616C105.67 254.832 105.361 255.136 105.134 255.528C104.912 255.915 104.801 256.369 104.801 256.892V264H100.634ZM113.933 264.222C113.098 264.222 112.357 264.082 111.709 263.804C111.067 263.52 110.558 263.094 110.183 262.526C109.814 261.952 109.629 261.233 109.629 260.369C109.629 259.642 109.757 259.028 110.013 258.528C110.268 258.028 110.621 257.622 111.07 257.31C111.518 256.997 112.036 256.761 112.621 256.602C113.206 256.437 113.831 256.327 114.496 256.27C115.24 256.202 115.839 256.131 116.294 256.057C116.749 255.977 117.078 255.866 117.283 255.724C117.493 255.577 117.598 255.369 117.598 255.102V255.06C117.598 254.622 117.447 254.284 117.146 254.045C116.845 253.807 116.439 253.688 115.928 253.688C115.376 253.688 114.933 253.807 114.598 254.045C114.263 254.284 114.05 254.614 113.959 255.034L110.115 254.898C110.229 254.102 110.521 253.392 110.993 252.767C111.47 252.136 112.124 251.642 112.953 251.284C113.788 250.92 114.791 250.739 115.962 250.739C116.797 250.739 117.567 250.838 118.271 251.037C118.976 251.23 119.589 251.514 120.112 251.889C120.635 252.259 121.038 252.713 121.322 253.253C121.612 253.793 121.757 254.409 121.757 255.102V264H117.837V262.176H117.734C117.501 262.619 117.203 262.994 116.839 263.301C116.482 263.608 116.058 263.838 115.57 263.991C115.087 264.145 114.541 264.222 113.933 264.222ZM115.22 261.494C115.669 261.494 116.072 261.403 116.43 261.222C116.794 261.04 117.084 260.79 117.3 260.472C117.516 260.148 117.624 259.773 117.624 259.347V258.102C117.504 258.165 117.359 258.222 117.189 258.273C117.024 258.324 116.842 258.372 116.643 258.418C116.445 258.463 116.24 258.503 116.03 258.537C115.82 258.571 115.618 258.602 115.425 258.631C115.033 258.693 114.697 258.79 114.419 258.92C114.146 259.051 113.936 259.222 113.788 259.432C113.646 259.636 113.575 259.881 113.575 260.165C113.575 260.597 113.729 260.926 114.036 261.153C114.348 261.381 114.743 261.494 115.22 261.494ZM135.734 254.906L131.908 255.009C131.868 254.736 131.76 254.494 131.584 254.284C131.408 254.068 131.178 253.901 130.893 253.781C130.615 253.656 130.291 253.594 129.922 253.594C129.439 253.594 129.027 253.69 128.686 253.884C128.351 254.077 128.186 254.338 128.192 254.668C128.186 254.923 128.288 255.145 128.499 255.332C128.714 255.52 129.098 255.67 129.649 255.784L132.172 256.261C133.479 256.511 134.45 256.926 135.087 257.506C135.729 258.085 136.053 258.852 136.058 259.807C136.053 260.705 135.786 261.486 135.257 262.151C134.734 262.815 134.018 263.332 133.109 263.702C132.2 264.065 131.161 264.247 129.99 264.247C128.121 264.247 126.646 263.864 125.567 263.097C124.493 262.324 123.879 261.29 123.726 259.994L127.842 259.892C127.933 260.369 128.169 260.733 128.55 260.983C128.93 261.233 129.416 261.358 130.007 261.358C130.541 261.358 130.976 261.259 131.311 261.06C131.646 260.861 131.817 260.597 131.822 260.267C131.817 259.972 131.686 259.736 131.43 259.56C131.175 259.378 130.774 259.236 130.229 259.134L127.945 258.699C126.632 258.46 125.655 258.02 125.013 257.378C124.371 256.73 124.053 255.906 124.058 254.906C124.053 254.031 124.286 253.284 124.757 252.665C125.229 252.04 125.899 251.562 126.768 251.233C127.638 250.903 128.663 250.739 129.845 250.739C131.618 250.739 133.016 251.111 134.038 251.855C135.061 252.594 135.626 253.611 135.734 254.906ZM142.278 256.534V264H138.11V246.545H142.141V253.312H142.286C142.582 252.506 143.065 251.875 143.735 251.42C144.411 250.966 145.238 250.739 146.215 250.739C147.136 250.739 147.937 250.943 148.619 251.352C149.3 251.756 149.829 252.327 150.204 253.065C150.585 253.804 150.772 254.668 150.766 255.656V264H146.599V256.474C146.604 255.747 146.423 255.179 146.053 254.77C145.684 254.361 145.164 254.156 144.494 254.156C144.056 254.156 143.67 254.253 143.335 254.446C143.005 254.634 142.746 254.903 142.559 255.256C142.377 255.608 142.283 256.034 142.278 256.534Z" fill="#61764B"/>
<defs>
<linearGradient id="paint0_linear_310_2" x1="100.5" y1="58" x2="100.5" y2="241" gradientUnits="userSpaceOnUse">
<stop stop-color="#003C96"/>
<stop offset="1" stop-color="#7FB77E"/>
</linearGradient>
</defs>
</svg>
